<svg width="147" height="147" viewBox="0 0 147 147" fill="none" xmlns="http://www.w3.org/2000/svg">
<rect width="147" height="147" rx="73.5" fill="#EDE1F9" fill-opacity="0.5"/>
<path d="M89.0446 80.735H86.51L85.6117 79.8688C88.7559 76.2113 90.6488 71.4629 90.6488 66.2975C90.6488 54.7796 81.3125 45.4434 69.7946 45.4434C58.8221 45.4434 49.8388 53.9134 49.0367 64.6934H55.5175C56.3196 57.4746 62.3513 51.86 69.7946 51.86C77.7834 51.86 84.2321 58.3088 84.2321 66.2975C84.2321 74.2863 77.7834 80.735 69.7946 80.735C69.2492 80.735 68.7359 80.6388 68.1905 80.5746V87.0554C68.7359 87.1196 69.2492 87.1517 69.7946 87.1517C74.96 87.1517 79.7084 85.2588 83.3659 82.1146L84.2321 83.0129V85.5475L100.274 101.557L105.054 96.7767L89.0446 80.735Z" fill="#83378F"/>
<path d="M60.0734 70.5325L52.1488 78.4571L44.2242 70.5325L41.9463 72.8104L49.8709 80.735L41.9463 88.6596L44.2242 90.9375L52.1488 83.0129L60.0734 90.9375L62.3513 88.6596L54.4267 80.735L62.3513 72.8104L60.0734 70.5325Z" fill="#83378F"/>
</svg>
